<?xml version="1.0" standalone="no"?>
<!DOCTYPE svg PUBLIC "-//W3C//DTD SVG 1.1//EN" "http://www.w3.org/Graphics/SVG/1.1/DTD/svg11.dtd" >
<svg xmlns="http://www.w3.org/2000/svg">
<metadata>Generated by IcoMoon</metadata>
<defs>
<font id="hach-font-icons" horiz-adv-x="1024">
<font-face units-per-em="1024" ascent="1024" descent="0" />
<missing-glyph horiz-adv-x="1024" />
<glyph unicode="&#x20;" horiz-adv-x="512" d="" />
<glyph unicode="&#xe600;" glyph-name="close" d="M1012.139 865.323l-158.677 158.677-348.501-348.501-334.421 334.507-158.677-158.677 346.283-346.325-346.283-346.24 158.677-158.763 348.501 348.501 334.421-334.421 158.677 158.677-346.283 346.325z" />
<glyph unicode="&#xe601;" glyph-name="cog-settings" d="M1016.917 430.805c4.267 26.539 7.083 53.504 7.083 81.195s-2.816 54.656-7.083 81.195l-134.741 19.456c-8.576 31.829-21.077 61.995-37.163 89.984l81.493 109.056c-31.915 44.117-70.656 82.816-114.816 114.773l-109.013-81.493c-27.989 16.085-58.155 28.587-89.984 37.205l-19.499 134.741c-26.539 4.309-53.547 7.083-81.195 7.083-27.733 0-54.656-2.773-81.152-7.040l-19.499-134.741c-31.829-8.619-61.995-21.12-90.027-37.205l-109.099 81.493c-44.075-31.957-82.816-70.656-114.731-114.773l81.493-109.056c-16.085-27.989-28.587-58.155-37.248-89.984l-134.741-19.456c-4.181-26.581-6.997-53.547-6.997-81.237s2.816-54.656 6.997-81.195l134.741-19.456c8.661-31.829 21.163-62.037 37.248-89.984l-81.493-109.056c31.915-44.117 70.656-82.816 114.731-114.773l109.099 81.493c27.989-16.085 58.155-28.587 89.984-37.205l19.499-134.741c26.539-4.267 53.461-7.083 81.195-7.083 27.648 0 54.656 2.816 81.152 7.040l19.499 134.741c31.829 8.619 61.995 21.12 89.984 37.205l109.013-81.493c44.16 31.957 82.901 70.656 114.816 114.773l-81.493 109.056c16.085 27.947 28.587 58.155 37.163 89.984l134.784 19.499zM512 298.667c-117.845 0-213.333 95.488-213.333 213.333s95.488 213.333 213.333 213.333 213.333-95.488 213.333-213.333-95.488-213.333-213.333-213.333z" />
<glyph unicode="&#xe602;" glyph-name="checkmark" d="M875.477 963.669l-534.144-597.461-192.811 197.077-148.523-148.523 354.475-354.432 669.525 754.859z" />
<glyph unicode="&#xe603;" glyph-name="clock" d="M511.744 1024c-282.197 0-511.744-229.675-511.744-512s229.547-512 511.744-512c282.453 0 512.256 229.675 512.256 512s-229.803 512-512.256 512zM512 128c-211.755 0-384 172.288-384 384s172.245 384 384 384c211.712 0 384-172.288 384-384s-172.288-384-384-384zM557.056 778.24h-122.709v-343.765l252.757-128.555 58.795 111.829-188.843 94.592z" />
<glyph unicode="&#xe604;" glyph-name="devices" d="M976.427 254.635v413.824h-3.712v1.024h-381.099v99.883h65.664v253.269h-253.227v-253.269h55.979v-99.883h-381.227v-1.024h-1.963v-413.824h-59.477v-253.269h253.269v253.269h-65.28v289.067h254.677v-289.067h-58.667v-253.269h253.269v253.269h-63.019v289.067h256.811v-289.067h-63.061v-253.269h253.269v253.269z" />
<glyph unicode="&#xe605;" glyph-name="home" d="M510.464 999.424l-506.027-519.68 144.896-1.195v-478.549h725.333v479.787l144.896-1.536-509.099 521.173zM745.387 132.437h-465.408v346.667h465.408v-346.667z" />
<glyph unicode="&#xe607;" glyph-name="navicon-menu" d="M0 248.405h1024v-154.667h-1024v154.667zM0 595.669h1024v-154.667h-1024v154.667zM0 930.261h1024v-154.667h-1024v154.667z" />
<glyph unicode="&#xe608;" glyph-name="user" d="M788.48 747.52c0-152.696-123.784-276.48-276.48-276.48s-276.48 123.784-276.48 276.48c0 152.696 123.784 276.48 276.48 276.48s276.48-123.784 276.48-276.48zM696.32 378.88h-368.64c-168.96 0-307.2-138.24-307.2-307.2v-71.68h983.040v71.68c0 168.96-138.24 307.2-307.2 307.2z" />
<glyph unicode="&#xe609;" glyph-name="l2-critical" d="M512 0c282.752 0 512 229.248 512 512s-229.248 512-512 512-512-229.248-512-512 229.248-512 512-512zM447.147 816.597h150.187v-304.597h-150.187v304.597zM447.147 358.4h150.187v-145.067h-150.187v145.067z" />
<glyph unicode="&#xe60a;" glyph-name="lock-close" d="M855.040 510.763v170.24c0 189.141-153.856 342.997-343.040 342.997s-343.040-153.856-343.040-342.997v-170.24h-82.603v-510.763h851.243v510.763h-82.56zM301.696 681.003c0 115.925 94.379 210.261 210.304 210.261s210.261-94.336 210.261-210.261v-170.24h-420.565v170.24z" />
<glyph unicode="&#xe60b;" glyph-name="hach-device" d="M244.48 357.333c121.259 0 178.944 57.429 251.989 130.176 79.36 78.976 169.301 168.491 345.344 168.491h96.853v384h-853.333v-682.667h159.147zM841.813 528c-123.264 0-184.32-60.843-255.019-131.243-78.848-78.507-168.192-167.424-342.315-167.424h-159.147v-213.333h853.333v512h-96.853z" />
<glyph unicode="&#xe60c;" glyph-name="airblast" d="M614.528 798.72c0 101.632-82.688 184.32-184.277 184.32-101.632 0-184.32-82.688-184.32-184.32v-20.48h122.88v20.48c0 33.877 27.563 61.44 61.44 61.44s61.44-27.563 61.44-61.44c0-33.877-27.563-61.44-61.44-61.44h-430.251v-122.88h430.251c101.589 0 184.277 82.688 184.277 184.32zM839.68 819.2c-101.632 0-184.32-82.688-184.32-184.32v-20.48h122.88v20.48c0 33.877 27.563 61.44 61.44 61.44s61.44-27.563 61.44-61.44-27.563-61.44-61.44-61.44h-839.68v-122.88h839.68c101.632 0 184.32 82.688 184.32 184.32s-82.688 184.32-184.32 184.32zM594.048 409.6h-594.048v-122.88h594.048c33.877 0 61.44-27.563 61.44-61.397s-27.563-61.44-61.44-61.44c-33.835 0-61.397 27.563-61.397 61.44v20.437h-122.88v-20.437c0-101.675 82.688-184.32 184.277-184.32 101.632 0 184.32 82.688 184.32 184.32 0 101.589-82.688 184.277-184.32 184.277z" />
<glyph unicode="&#xe60d;" glyph-name="buster" d="M0 512c0-282.837 229.205-512 512-512 282.752 0 512 229.163 512 512 0 282.752-229.248 512-512 512-282.795 0-512-229.248-512-512zM896 512c0-82.816-26.624-159.403-71.381-222.165l-534.784 534.741c62.805 44.757 139.349 71.424 222.165 71.424 211.755 0 384-172.331 384-384zM128 512c0 82.731 26.581 159.317 71.339 222.080l534.784-534.741c-62.805-44.757-139.349-71.339-222.123-71.339-211.755 0-384 172.245-384 384z" />
<glyph unicode="&#xe610;" glyph-name="clipboard-self-test" d="M757.333 543.147l-62.293 61.867-258.133-258.133-103.68 103.68-61.867-61.867 165.547-165.547 320.427 320zM810.667 825.6c0 23.040 0 70.4 0 70.4h-190.72v30.293c-7.068 55.072-53.654 97.2-110.080 97.2s-103.012-42.128-110.022-96.647l-0.058-28.714-37.973-2.133h-151.893s0-51.627 0-71.68h-81.92v-738.987c0-46.933 0-85.333 0-85.333h768s0 38.4 0 85.333v739.84s-39.68-0.427-85.333 0.427zM512 965.12c24.271 0 43.947-19.676 43.947-43.947s-19.676-43.947-43.947-43.947c-5.18 0.001-10.18 0.94-14.802 2.656-20.285 3.498-35.73 21.231-35.73 42.571 0 23.902 19.377 43.279 43.279 43.279 2.562 0 5.073-0.223 7.513-0.65zM776.533 116.907h-530.347v651.093h529.067v-651.093z" />
<glyph unicode="&#xe611;" glyph-name="wiper" d="M689.493 250.88l2.987 5.12 331.52 479.573-25.6 32.427c-108.615 148.42-285.51 247.504-485.739 251.722-196.579-2.425-374.275-100.192-485.888-250.075l-26.773-34.074 334.507-484.693c20.85 48.729 71.944 90.505 133.687 101.8l-17.634-148.734c-37.851-16.148-63.899-53.047-63.899-96.029 0-57.497 46.61-104.107 104.107-104.107s104.107 46.61 104.107 104.107c0 36.258-18.536 68.188-46.649 86.828l19.241 154.267c58.175-1.96 107.174-42.561 121.817-97.215zM674.56 424.107c5.012 1.221-40.152 23.426-89.424 34.958l35.664 299.122-96.853 12.373-38.4-301.227c-34.46-0.325-89.644-16.524-137.909-43.595l-208.971 304.289c87.434 105.55 221.897 175.488 372.783 178.764 147.379-1.802 282.572-70.758 373.262-178.433z" />
<glyph unicode="&#xe612;" glyph-name="lock-open" d="M301.739 510.763v170.24c0 115.925 94.336 210.261 210.261 210.261 69.973 0 135.125-34.645 174.421-92.757l109.995 74.325c-63.957 94.677-170.283 151.168-284.416 151.168-189.184 0-343.040-153.813-343.040-342.997v-170.24h-82.603v-510.763h851.243v510.763h-635.861z" />
<glyph unicode="&#xe613;" glyph-name="measurement-active" d="M512 1024c-145.493-300.672-341.333-500.565-341.333-686.848 0-186.155 153.6-337.152 342.101-337.152s340.565 150.997 340.565 337.152c0 186.283-188.416 388.181-341.333 686.848zM461.312 47.019c-140.416 25.216-247.979 144.981-247.979 290.133 0 103.765 71.083 218.069 161.92 362.325 7.851 12.544 20.309 4.523 14.677-8.576-44.501-102.656-91.264-235.307-91.264-338.901 0-180.437 102.656-261.504 165.931-292.651 8.064-4.011 6.059-14.037-3.285-12.331z" />
<glyph unicode="&#xe614;" glyph-name="volume-off" d="M298.667 669.867v-328.533h170.667l213.333-213.333h42.667v115.2zM725.333 477.867v418.133h-42.667l-187.733-187.733-256 256-59.733-64 725.333-721.067 59.733 59.733z" />
<glyph unicode="&#xe615;" glyph-name="bottle-multiple" d="M1012.437 815.488l-10.624 8.363c-34.645 27.008-74.027 48.597-117.376 64.256v139.264h-320v-139.264c-38.443-13.909-73.216-33.152-104.917-56.064v108.459h-320v-139.264c-43.307-15.744-82.731-37.248-117.376-64.341l-10.581-8.235v-731.989h576v86.827h424.917v731.989zM585.771 729.984v5.333c105.515 66.432 214.571 66.432 320 0v-539.776h-318.251v533.12l-1.749 1.323z" />
<glyph unicode="&#xe617;" glyph-name="volume-up" d="M742.4 55.467l-38.4 76.8c140.8 68.267 234.667 213.333 234.667 379.733s-98.133 311.467-234.667 379.733l38.4 76.8c166.4-85.333 281.6-256 281.6-456.533s-115.2-375.467-281.6-456.533zM853.333 512c0 132.267-76.8 247.467-187.733 302.933l-38.4-76.8c85.333-42.667 140.8-128 140.8-230.4 0-98.133-59.733-187.733-140.8-230.4l38.4-76.8c110.933 64 187.733 179.2 187.733 311.467zM682.667 512c0 68.267-38.4 123.733-93.867 153.6l-38.4-76.8c29.867-12.8 46.933-42.667 46.933-76.8s-21.333-64-46.933-76.8l38.4-76.8c55.467 29.867 93.867 85.333 93.867 153.6zM384 896l-213.333-213.333h-170.667v-341.333h170.667l213.333-213.333h42.667v768h-42.667z" />
<glyph unicode="&#xe618;" glyph-name="wrench" d="M208 0l-208 205.056 451.499 446.379c-20.864 94.293-7.296 210.56 68.053 284.885 87.040 85.931 213.504 108.8 319.787 68.181l-205.909-203.136c-11.349-11.179-11.52-29.355-0.341-40.363l124.117-122.069c11.179-11.008 29.568-10.837 40.96 0.341l205.867 203.221c41.429-104.747 18.389-229.291-68.651-315.221-75.392-74.325-193.792-88.277-289.579-67.925z" />
<glyph unicode="&#xe619;" glyph-name="upload" d="M314.496 645.504l197.504 197.504 197.504-197.504 90.496 90.496-288 288-288-288zM576 320c0-35.346-28.654-64-64-64s-64 28.654-64 64c0 35.346 28.654 64 64 64s64-28.654 64-64zM576 64c0-35.346-28.654-64-64-64s-64 28.654-64 64c0 35.346 28.654 64 64 64s64-28.654 64-64zM576 576c0-35.346-28.654-64-64-64s-64 28.654-64 64c0 35.346 28.654 64 64 64s64-28.654 64-64z" />
<glyph unicode="&#xe620;" glyph-name="bottle-single" d="M773.077 803.157c-32.597 29.312-69.675 52.693-110.464 69.76v151.083h-301.184v-151.083c-40.789-17.067-77.867-40.448-110.507-69.76l-9.984-8.96v-794.197h542.123v794.197l-9.984 8.96zM378.325 132.992l-2.645 593.408c99.285 72.021 165.675 73.6 277.675 0.341l2.645-593.408-277.675-0.341z" />
<glyph unicode="&#xe621;" glyph-name="rfid" d="M100.352 511.957c0 94.165 31.275 182.912 90.539 256.811l18.816 23.467-78.507 62.933-18.816-23.509c-73.515-91.861-112.384-202.453-112.384-319.701 0-115.627 39.893-229.205 112.427-319.616l18.773-23.552 78.549 62.848-18.816 23.509c-59.264 73.856-90.581 162.645-90.581 256.811zM358.229 641.451l-79.104 63.275-18.773-23.509c-38.955-48.597-59.52-107.093-59.52-169.259s20.565-120.661 59.52-169.216l18.731-23.467 79.147 63.104-18.901 23.552c-24.96 31.104-38.144 67.797-38.144 105.984 0 38.229 13.184 74.88 38.144 105.899l18.901 23.637zM622.421 512c0-60.984-49.437-110.421-110.421-110.421s-110.421 49.437-110.421 110.421c0 60.984 49.437 110.421 110.421 110.421s110.421-49.437 110.421-110.421zM763.648 681.259l-18.773 23.509-79.147-63.275 18.901-23.595c25.003-31.019 38.187-67.669 38.187-105.899s-13.227-74.88-38.187-105.984l-18.901-23.552 79.189-63.104 18.731 23.467c38.955 48.555 59.52 107.051 59.52 169.216 0.043 62.080-20.565 120.576-59.52 169.216zM911.616 831.659l-18.859 23.509-78.507-62.933 18.816-23.467c59.264-73.899 90.539-162.645 90.539-256.811s-31.275-182.955-90.539-256.853l-18.816-23.509 78.549-62.848 18.773 23.552c72.491 90.453 112.427 204.032 112.427 319.659 0 117.248-38.869 227.84-112.384 319.701z" />
<glyph unicode="&#xe622;" glyph-name="clipboard-results" d="M407.467 293.547l104.107-91.733 209.493 183.040-158.293 0.427v229.973l-101.547 0.853 0.427-230.827-158.72 0.427 104.533-92.16zM813.227 825.6c-2.56 23.040-2.56 70.4-2.56 70.4h-189.44v30.293c-7.068 55.072-53.654 97.2-110.080 97.2s-103.012-42.128-110.022-96.647l-0.058-28.714-37.973-2.133h-149.76s0-50.347 0-70.4h-82.347v-740.267c0-46.933 0-85.333 0-85.333h762.027s0 38.4 0 85.333v739.84s-35.413-0.427-79.787 0.427zM512 965.12c24.271 0 43.947-19.676 43.947-43.947s-19.676-43.947-43.947-43.947c-5.18 0.001-10.18 0.94-14.802 2.656-20.285 3.498-35.73 21.231-35.73 42.571 0 23.902 19.377 43.279 43.279 43.279 2.562 0 5.073-0.223 7.513-0.65zM776.533 116.907h-529.067v656.213h529.067v-656.213z" />
<glyph unicode="&#xe623;" glyph-name="power" d="M700.928 904.875v-145.579c93.227-61.611 154.923-167.168 154.923-286.976 0-189.611-154.24-343.851-343.851-343.851s-343.851 154.24-343.851 343.851c0 119.808 61.696 225.365 154.923 286.976v145.749c-166.571-73.045-283.392-239.36-283.392-432.725 0-260.437 211.797-472.32 472.064-472.32 260.565 0 472.576 211.883 472.576 472.32 0 193.237-116.779 359.509-283.392 432.555zM439.979 1024h151.168v-453.419h-151.168v453.419z" />
<glyph unicode="&#xe624;" glyph-name="paper" horiz-adv-x="960" d="M277.632 595.029h440.363v-96h-440.363v96zM277.632 412.203h440.363v-96h-440.363v96zM935.509 780.416l-243.072 258.816-132.267 0.213-0.597 0.555v-0.597l-503.083 0.512c0 0 0.683-43.52 0.683-97.365l-0.469-829.013c0-53.931-0.213-97.536-0.213-97.536h780.416c53.845 0 94.208 0 94.208 0l4.224 664.619h0.171l-0.171 0.171 0.171 99.627zM811.989 145.536h-625.792v764.928h373.376v-229.845h252.459v-535.083zM644.907 765.952v170.368l170.155-170.368h-170.155z" />
<glyph unicode="&#xe625;" glyph-name="measurement-idle" d="M226.133 529.067c-34.133-68.267-55.467-132.267-55.467-192 0-187.733 153.6-337.067 341.333-337.067 68.267 0 132.267 21.333 187.733 55.467l-473.6 473.6zM844.8 268.8c4.267 21.333 8.533 46.933 8.533 68.267 0 187.733-187.733 388.267-341.333 686.933-46.933-98.133-102.4-187.733-153.6-268.8l-226.133 230.4-89.6-89.6 896-896 89.6 89.6-183.467 179.2z" />
<glyph unicode="&#xe627;" glyph-name="safety" d="M1015.808 132.992l-462.293 804.011c-19.925 34.56-63.104 34.56-82.987 0l-462.293-804.011c-9.899-17.237-10.923-35.285-2.731-49.493 8.235-14.251 24.491-22.4 44.544-22.4h923.904c20.011 0 36.224 8.192 44.459 22.443 8.277 14.251 7.296 32.256-2.603 49.451zM587.093 155.563h-150.187v150.144h150.187v-150.144zM587.093 416.64h-150.187v304.597h150.187v-304.597z" />
<glyph unicode="&#xe631;" glyph-name="l3-severe" d="M0 1024v-1024h1024v1024h-1024zM593.92 180.181h-163.84v163.797h163.84v-163.797zM593.92 511.531h-163.84v332.288h163.84v-332.288z" />
<glyph unicode="&#xe632;" glyph-name="bell" d="M889.813 180.821v331.179c0 184.96-123.563 339.584-290.56 380.629v40.96c0.043 50.091-38.955 90.411-87.253 90.411-48.427 0-87.381-40.32-87.381-90.411v-40.96c-166.912-41.045-290.432-195.669-290.432-380.629v-331.179l-116.565-120.533v-60.288h988.843v60.288l-116.651 120.533z" />
<glyph unicode="&#xe633;" glyph-name="view-list" d="M340.693 597.333h682.667v-170.667h-682.667v170.667zM340.693 298.667h682.667v-170.667h-682.667v170.667zM340.693 896h682.667v-170.667h-682.667v170.667zM0.64 597.333h169.429v-170.667h-169.429v170.667zM0.64 298.667h169.429v-170.667h-169.429v170.667zM0.64 896h169.429v-170.667h-169.429v170.667z" />
<glyph unicode="&#xe634;" glyph-name="view-grid" d="M0 614.528h203.563v-205.099h-203.563v205.099zM0 255.616h203.563v-205.099h-203.563v205.099zM0 973.44h203.563v-205.099h-203.563v205.099zM410.197 614.528h203.563v-205.099h-203.563v205.099zM410.197 255.616h203.563v-205.099h-203.563v205.099zM410.197 973.44h203.563v-205.099h-203.563v205.099zM820.437 614.528h203.605v-205.099h-203.605v205.099zM820.437 255.616h203.605v-205.099h-203.605v205.099zM820.437 973.44h203.605v-205.099h-203.605v205.099z" />
<glyph unicode="&#xe635;" glyph-name="view-graph" d="M139.648 331.307l222.72 229.461 305.28-251.477 389.717 489.003-66.731 53.163-335.616-421.163-299.136 246.272-216.235-222.763v564.139h-133.547v-1011.883h1011.797v133.589h-878.251z" />
<glyph unicode="&#xe636;" glyph-name="view-calendar" d="M258.645 533.973h203.563v-205.099h-203.563v205.099zM0 1040v-1024h1024v1024h-1024zM890.667 144h-762.667v666.667h762.667v-666.667z" />
<glyph unicode="&#xe637;" glyph-name="pencil" d="M985.301 854.571l-129.792 129.792c-21.717 21.675-38.315 39.637-38.315 39.637l-117.675-116.907-698.581-698.539v-208.555h208.512l813.611 814.251c0 0-16.085 18.603-37.76 40.32z" />
<glyph unicode="&#xe638;" glyph-name="cart" d="M307.2 204.843c-56.576 0-101.931-45.824-101.931-102.4s45.355-102.443 101.931-102.443 102.4 45.824 102.4 102.4-45.824 102.443-102.4 102.443zM0 1024v-126.421h102.4l172.245-337.579-57.344-152.149c-7.893-14.848-12.501-31.531-12.501-49.451 0-56.576 45.824-102.4 102.4-102.4h614.4v129.067h-549.973c-7.168 0-12.8 5.675-12.8 12.843 0 2.261 0.512 4.352 1.536 6.101l18.304 56.832h366.293c38.357 0 71.979 21.248 89.6 52.736l183.040 332.245c4.096 7.168 6.4 15.659 6.4 24.576 0 28.416-23.040 51.2-51.2 51.2h-733.013l-48.64 102.4h-191.147zM819.2 204.843c-56.576 0-101.931-45.824-101.931-102.4s45.355-102.443 101.931-102.443 102.357 45.824 102.357 102.4-45.781 102.443-102.357 102.443z" />
<glyph unicode="&#xe639;" glyph-name="search" d="M1002.027 165.803l-291.072 250.667c31.659 55.211 49.92 118.997 49.92 187.093 0 208.768-170.325 377.856-380.416 377.856-210.091 0.043-380.459-169.088-380.459-377.856 0-208.725 170.325-377.899 380.416-377.899 90.496 0 173.483 31.403 238.805 83.797l-1.408-1.664 290.133-249.771c26.496-22.827 67.072-20.011 90.069 6.357l10.411 11.947c23.040 26.368 20.139 66.603-6.4 89.472zM382.592 358.784c-134.912 0-244.352 108.629-244.352 242.688 0 134.016 109.312 242.645 244.352 242.645 134.869 0 244.267-108.629 244.267-242.645s-109.397-242.688-244.267-242.688z" />
<glyph unicode="&#xf053;" glyph-name="chevron-left" d="M848.427 160.896l-351.104 351.104 351.104 351.104-160.853 160.896-512-512 512-512z" />
<glyph unicode="&#xf054;" glyph-name="chevron-right" d="M175.787 863.147l350.72-351.147-350.72-351.147 160.427-160.853 512.427 512-512.427 512-160.427-160.853z" />
<glyph unicode="&#xf0c3;" glyph-name="beaker" d="M975.36 144l-292.651 528.64v266.027h42.667c11.52 0 21.504 4.267 29.952 12.629 8.448 8.448 12.629 18.475 12.629 30.037s-4.181 21.589-12.629 30.037c-8.448 8.363-18.432 12.629-29.952 12.629h-426.667c-11.563 0-21.589-4.267-30.037-12.629-8.448-8.491-12.629-18.475-12.629-30.037s4.181-21.589 12.629-30.037c8.448-8.363 18.475-12.629 30.037-12.629h42.709v-265.984l-292.736-528.683c-24.875-39.552-29.653-73.387-14.293-101.589 15.36-28.288 46.549-42.411 93.611-42.411h768.043c47.061 0 78.336 14.123 93.568 42.411 15.403 28.16 10.624 61.995-14.251 101.589zM232.021 128l240.896 499.371h86.656l232.405-499.371h-559.957z" />
</font>
</defs>
</svg>
